<svg width="199" height="199" fill="none" xmlns="http://www.w3.org/2000/svg"><path d="M19.116 54h162v92c-40.334.04-40.334.04-57.182.049-11.652.006-23.304.013-34.956.026-8.484.01-16.969.017-25.454.019-4.495.001-8.99.004-13.486.012-4.226.006-8.452.009-12.678.007-1.556 0-3.112.002-4.667.006-2.115.005-4.23.004-6.344.001l-3.596.003C20.116 146 20.116 146 19.116 145a222.97 222.97 0 0 1-.113-8.467v-2.734c0-2.934.008-5.869.015-8.803l.003-5.418c.006-6.713.02-13.427.032-20.14L19.116 54Zm12 12v67h137V66h-137Z" fill="url(#a)"/><path d="m109.079 78.87 3.205-.009 3.488.006 3.554-.003c2.485 0 4.97.001 7.455.006 3.818.005 7.637 0 11.456-.007l7.223.004 3.488-.006 3.205.01 2.837.002c2.126.127 2.126.127 3.126 1.127.089 2.957.115 5.89.098 8.848l-.005 2.686c-.005 2.843-.018 5.686-.031 8.529l-.013 5.767c-.011 4.723-.029 9.447-.049 14.17-7.672.025-15.344.043-23.016.055-2.613.005-5.225.012-7.837.02-3.746.013-7.491.018-11.237.023l-3.564.015-3.275.001-2.901.006c-2.17-.12-2.17-.12-3.17-1.12-.101-2.873-.14-5.721-.133-8.594l-.003-2.611c0-1.826.001-3.652.006-5.478.005-2.805 0-5.61-.007-8.415l.004-5.308-.006-2.56c.029-7.158.029-7.158 6.102-7.163ZM114.116 90v19h33V90h-33Z" fill="url(#b)"/><path d="m47.079 78.87 3.205-.009 3.488.006 3.554-.003c2.485 0 4.97.001 7.455.006 3.818.005 7.637 0 11.456-.007l7.223.004 3.488-.006 3.205.01 2.837.002C95.116 79 95.116 79 96.116 80c.089 2.957.115 5.89.098 8.848l-.005 2.686a3416.13 3416.13 0 0 1-.03 8.529l-.014 5.767c-.011 4.723-.029 9.447-.049 14.17-7.672.025-15.344.043-23.016.055-2.613.005-5.225.012-7.837.02-3.746.013-7.491.018-11.237.023l-3.564.015-3.275.001-2.9.006c-2.171-.12-2.171-.12-3.171-1.12-.101-2.873-.14-5.721-.133-8.594l-.003-2.611c0-1.826.002-3.652.006-5.478.005-2.805 0-5.61-.007-8.415 0-1.77.002-3.539.004-5.308l-.006-2.56c.03-7.158.03-7.158 6.102-7.163ZM52.116 90v19h33V90h-33Z" fill="url(#c)"/><defs><linearGradient id="a" x1="21" y1="110.5" x2="241.5" y2="124.5" gradientUnits="userSpaceOnUse"><stop stop-color="#555451"/><stop offset="1" stop-color="#8D8B84"/></linearGradient><linearGradient id="b" x1="103.659" y1="104.166" x2="178.922" y2="107.802" gradientUnits="userSpaceOnUse"><stop stop-color="#555451"/><stop offset="1" stop-color="#8D8B84"/></linearGradient><linearGradient id="c" x1="41.659" y1="104.166" x2="116.922" y2="107.802" gradientUnits="userSpaceOnUse"><stop stop-color="#555451"/><stop offset="1" stop-color="#8D8B84"/></linearGradient></defs></svg>