<svg width="199" height="199" fill="none" xmlns="http://www.w3.org/2000/svg"><path d="M18 53h162v92c-40.334.04-40.334.04-57.182.049-11.652.006-23.304.013-34.956.026-8.484.01-16.969.017-25.454.019-4.495.001-8.99.004-13.486.012-4.226.006-8.452.009-12.678.007-1.556 0-3.112.002-4.667.006-2.115.005-4.23.004-6.345.001l-3.595.003C19 145 19 145 18 144a222.97 222.97 0 0 1-.113-8.467v-2.734c0-2.934.008-5.869.015-8.803l.003-5.418c.006-6.713.02-13.427.032-20.14L18 53Zm12 12v67h137V65H30Z" fill="url(#a)"/><path d="M155.238 83.535c3.983 3.312 6.387 7.495 7.035 12.629.277 6.706-1.124 11.497-5.273 16.836-5.166 4.526-10.43 5.593-17.149 5.43-5.96-.898-9.986-3.941-13.554-8.703-2.997-5.219-3.943-9.526-2.938-15.473C125.066 88.248 129.014 84.52 134 81c7.947-3.238 14.338-2.142 21.238 2.535Zm-17.613 10.09c-2.089 3.053-2.166 4.745-1.625 8.375 1.546 2.36 2.732 2.901 5.375 3.875 3.495.166 4.954-.65 7.625-2.875 1.17-2.349 1.17-2.349 1-5-1.142-2.283-2.19-4.19-4-6-3.563-.396-5.377-.427-8.375 1.625Z" fill="url(#b)"/><path d="M110.324 82.59c4.233 3.562 7.21 7.686 8.152 13.195.189 6.247-.422 11.924-4.835 16.68-5.448 4.844-10.671 6.12-17.786 5.976-5.557-.859-9.685-3.862-13.265-8.117-3.122-4.867-4.09-9.963-3.254-15.586C81.009 88.338 84.523 84.58 90 81c6.94-2.975 13.891-2.537 20.324 1.59ZM93 94c-1.438 2.875-1.382 4.819-1 8 2.01 2.591 2.01 2.591 5 4 3.147.253 3.147.253 6-1 2.295-2.665 3.043-4.097 2.875-7.625-.961-2.609-1.574-3.814-3.875-5.375-3.578-.459-5.969.051-9 2Z" fill="url(#c)"/><path d="M66.313 82.625c4.525 3.768 6.869 7.628 8.562 13.313.204 5.003-1.297 9.328-2.875 14.062-1.707 1.789-1.707 1.789-3.813 3.625l-2.082 1.852C61.392 118.887 55.6 118.463 50 118c-5.834-1.83-9.468-6.173-13-11-1.696-5.087-1.991-10.952-.316-16.102 2.885-5.435 7.007-8.94 12.629-11.273 6.494-1.1 11.48-.837 17 3ZM49 94c-.933 3.6-1.481 5.925.063 9.375 2.717 2.279 4.392 2.696 7.937 2.625 3.103-1.853 3.103-1.853 5-5 .178-3.676.178-3.676-1-7-4.432-2.955-7.568-2.955-12 0Z" fill="url(#d)"/><path d="M45 82c0 3 0 3-2.5 5.688L40 90l-2-1c4.75-5.875 4.75-5.875 7-7Z" fill="url(#e)"/><path d="m87 83 3 1-7 6c.96-3.837 1.236-4.597 4-7Z" fill="url(#f)"/><defs><linearGradient id="a" x1="17.884" y1="99.061" x2="225" y2="99" gradientUnits="userSpaceOnUse"><stop stop-color="#555451"/><stop offset="1" stop-color="#8D8B84"/></linearGradient><linearGradient id="b" x1="142.64" y1="79.144" x2="142.64" y2="118.445" gradientUnits="userSpaceOnUse"><stop stop-color="#555451"/><stop offset="1" stop-color="#8D8B84"/></linearGradient><linearGradient id="c" x1="98.778" y1="79.078" x2="98.778" y2="118.452" gradientUnits="userSpaceOnUse"><stop stop-color="#555451"/><stop offset="1" stop-color="#8D8B84"/></linearGradient><linearGradient id="d" x1="55.23" y1="79.06" x2="55.23" y2="118.31" gradientUnits="userSpaceOnUse"><stop stop-color="#555451"/><stop offset="1" stop-color="#8D8B84"/></linearGradient><linearGradient id="e" x1="41.5" y1="82" x2="41.5" y2="90" gradientUnits="userSpaceOnUse"><stop stop-color="#555451"/><stop offset="1" stop-color="#8D8B84"/></linearGradient><linearGradient id="f" x1="86.5" y1="83" x2="86.5" y2="90" gradientUnits="userSpaceOnUse"><stop stop-color="#555451"/><stop offset="1" stop-color="#8D8B84"/></linearGradient></defs></svg>