<svg width="32" height="32" fill="none" xmlns="http://www.w3.org/2000/svg"><path d="m21.525 20.95-1.365-1.622-2.453 2.048c-.47.384-1.131.32-1.515-.128l-1.067-1.28-7.253 1.301L.405 3.456a1.056 1.056 0 0 1 .299-1.237l1.088-.896a1.056 1.056 0 0 1 1.259-.086L19.307 11.67l-2.56 6.934.405.469 2.453-2.07a1.054 1.054 0 0 1 1.494.129l2.048 2.453c.469-.384 1.13-.32 1.514.128l6.848 8.17c.384.47.32 1.131-.128 1.515l-1.642 1.366c-.448.384-1.11.32-1.494-.128l-6.848-8.171a1.08 1.08 0 0 1 .128-1.515Zm-10.39-2.433-.298-5.312 5.184 1.216.683-1.877-13.93-8.939 6.4 15.275 1.962-.363Z" fill="#BA0800"/></svg>