<svg xmlns="http://www.w3.org/2000/svg" width="40" height="40" fill="none"><path d="M17.49 9.248h5.02c1.554-.058 1.552-2.287 0-2.344h-5.02c-1.554.057-1.552 2.286 0 2.344ZM27.531 16.945H12.47c-1.553.058-1.552 2.287 0 2.344H27.53c1.553-.058 1.552-2.287 0-2.344ZM6.276 13.097c0 .647.525 1.172 1.172 1.172h25.104c1.553-.058 1.552-2.287 0-2.344H7.448c-.647 0-1.172.524-1.172 1.172Z" fill="#BA0800"/><path d="M38.828 1.883H1.172C.525 1.883 0 2.408 0 3.055V33.18c0 .647.525 1.172 1.172 1.172h15.146v2.593a1.172 1.172 0 0 0 1.696 1.048L20 37l1.986.993a1.172 1.172 0 0 0 1.696-1.048v-2.593h15.146c.647 0 1.172-.525 1.172-1.172V3.055c0-.647-.525-1.172-1.172-1.172ZM2.344 4.227h4.785L2.344 9.012V4.227Zm0 27.78v-4.785l4.785 4.786H2.344Zm18.994 3.042-.814-.407a1.172 1.172 0 0 0-1.048 0l-.815.407v-3.392c.86.245 1.817.245 2.677 0v3.392ZM20 29.497a2.597 2.597 0 0 1-2.594-2.593c.13-3.436 5.058-3.436 5.188 0A2.597 2.597 0 0 1 20 29.497Zm17.656 2.51h-4.785l4.785-4.785v4.786Zm0-8.1-8.1 8.1h-5.874v-1.819c2.828-3.091.55-8.256-3.682-8.222-4.247-.015-6.507 5.107-3.682 8.222v1.82h-5.874l-8.1-8.1V12.327l8.1-8.1h19.112l8.1 8.1v11.58Zm0-14.895-4.785-4.785h4.785v4.785Z" fill="#BA0800"/></svg>