<svg xmlns="http://www.w3.org/2000/svg" width="12" height="12" viewBox="0 0 16 17" fill="none"><g clip-path="url(#a)" fill="#4E4B66"><path d="M10.85 9.913 8.62 8.24V4.832a.62.62 0 1 0-1.24 0V8.55c0 .195.092.379.248.495l2.479 1.86a.617.617 0 0 0 .867-.125.618.618 0 0 0-.123-.867Z"/><path d="M8 .5c-4.411 0-8 3.589-8 8 0 4.412 3.589 8 8 8 4.412 0 8-3.588 8-8 0-4.411-3.588-8-8-8Zm0 14.76A6.769 6.769 0 0 1 1.24 8.5 6.769 6.769 0 0 1 8 1.74a6.769 6.769 0 0 1 6.76 6.76A6.77 6.77 0 0 1 8 15.26Z"/></g><defs><clipPath id="a"><path fill="#fff" transform="translate(0 .5)" d="M0 0h16v16H0z"/></clipPath></defs></svg>