<svg width="199" height="199" fill="none" xmlns="http://www.w3.org/2000/svg"><path d="M40 36c2.058-.37 2.058-.37 4.644-.36l2.966-.013 3.266.032h3.429c3.755.001 7.51.025 11.265.048 2.598.006 5.196.01 7.794.013 6.148.01 12.296.034 18.444.064 7 .033 13.998.05 20.997.065 14.398.031 28.797.084 43.195.151 1.999 5.16 3.747 10.3 5.177 15.649l.592 2.183c1.81 6.704 3.563 13.425 5.3 20.148 1.158 4.479 2.332 8.951 3.551 13.413a771.333 771.333 0 0 1 3.453 13.139c.422 1.63.859 3.257 1.315 4.879C180.723 124.518 179 141.367 179 162H17c0-44.883 0-44.883 4.523-61.078.47-1.82.936-3.64 1.399-5.461a963.795 963.795 0 0 1 3.696-13.903c1.03-3.818 2.017-7.646 3.004-11.476a1969.04 1969.04 0 0 1 6.223-23.65l.574-2.161C37.294 41.074 38.14 38.789 40 36Zm9 13c-6.535 23.525-12.184 47.287-18 71h134c-8.057-35.773-8.057-35.773-18-71H49Zm-20 84v17h138v-17H29Z" fill="url(#a)"/><defs><linearGradient id="a" x1="98.133" y1="35.627" x2="98.133" y2="162" gradientUnits="userSpaceOnUse"><stop stop-color="#555451"/><stop offset="1" stop-color="#8D8B84"/></linearGradient></defs></svg>