<svg width="32" height="32" fill="none" xmlns="http://www.w3.org/2000/svg"><g clip-path="url(#a)" fill="#BA0800"><path d="M19.916 0C13.254 0 7.834 5.405 7.834 12.05c0 6.644 5.42 12.049 12.082 12.049C26.58 24.099 32 18.694 32 12.049 31.999 5.405 26.579 0 19.916 0Zm0 22.223c-5.627 0-10.206-4.564-10.206-10.173 0-5.61 4.579-10.174 10.206-10.174 5.628 0 10.206 4.564 10.206 10.174 0 5.609-4.578 10.173-10.206 10.173Z"/><path d="M20.855 5.977h-1.877v7.01h7.026v-1.876h-5.15V5.977ZM.9 22.673l5.018-5.003 1.324 1.328-5.017 5.004L.9 22.673ZM0 16.474l4.62-4.606 1.324 1.329-4.62 4.606L0 16.474ZM14.234 30.668l4.62-4.606 1.324 1.328-4.62 4.606-1.324-1.328ZM2.243 28.43l5.864-5.847 1.324 1.329-5.864 5.847-1.324-1.328ZM8.017 29.77l5.018-5.004 1.324 1.329-5.017 5.003-1.325-1.328Z"/></g><defs><clipPath id="a"><path fill="#fff" d="M0 0h32v32H0z"/></clipPath></defs></svg>