<svg width="32" height="32" viewBox="0 0 32 32" fill="none" xmlns="http://www.w3.org/2000/svg">
<g clip-path="url(#clip0_4552_580)">
<path d="M19.9163 0C13.2539 0 7.83374 5.40537 7.83374 12.0495C7.83374 18.6937 13.2539 24.099 19.9163 24.099C26.5786 24.099 31.9988 18.6937 31.9988 12.0495C31.9988 5.40537 26.5786 0 19.9163 0ZM19.9163 22.2227C14.2886 22.2227 9.71013 17.659 9.71013 12.0495C9.71013 6.44 14.2886 1.87639 19.9163 1.87639C25.544 1.87639 30.1224 6.44007 30.1224 12.0495C30.1224 17.659 25.5439 22.2227 19.9163 22.2227Z" fill="#BA0800"/>
<path d="M20.8547 5.97742H18.9783V12.9877H26.0038V11.1113H20.8547V5.97742Z" fill="#BA0800"/>
<path d="M0.899902 22.6732L5.91753 17.6698L7.24226 18.9982L2.22463 24.0017L0.899902 22.6732Z" fill="#BA0800"/>
<path d="M0 16.4745L4.61917 11.8684L5.9439 13.1968L1.32473 17.803L0 16.4745Z" fill="#BA0800"/>
<path d="M14.2339 30.6677L18.8531 26.0616L20.1778 27.39L15.5586 31.9962L14.2339 30.6677Z" fill="#BA0800"/>
<path d="M2.24268 28.4307L8.10659 22.5833L9.43132 23.9118L3.5674 29.7591L2.24268 28.4307Z" fill="#BA0800"/>
<path d="M8.01685 29.7699L13.0345 24.7664L14.3592 26.0949L9.34157 31.0984L8.01685 29.7699Z" fill="#BA0800"/>
</g>
<defs>
<clipPath id="clip0_4552_580">
<rect width="32" height="32" fill="white"/>
</clipPath>
</defs>
</svg>
