<svg width="128" height="921" fill="none" xmlns="http://www.w3.org/2000/svg"><path d="M126.156 921H1.69v-41.828h18.747v21.258h30.886v-16.202h19.054v16.202h37.186v-21.488h18.593V921ZM126.156 869.948 1.69 868.339v-22.063l72.375-10.227L1.69 825.017v-21.259l124.466-1.609v14.594l-82.823 1.724 82.823 10.802v12.985l-83.438 11.491 83.438 1.379v14.824ZM126.156 788.693H1.69v-41.829h18.747v21.259h30.886V751.92h19.054v16.203h37.186v-21.489h18.593v42.059ZM126.156 737.296H1.69V711.67c0-6.282.922-11.721 2.766-16.317 1.844-4.597 5.173-8.159 9.988-10.687 4.713-2.605 11.422-3.907 20.13-3.907 5.122 0 9.68.306 13.676.919 3.995.613 7.478 1.762 10.449 3.447 2.868 1.609 5.275 3.946 7.222 7.01l60.235-12.755v21.259l-55.779 10.227v5.86h55.779v20.57Zm-71.606-20.57v-5.745c0-2.911-.666-5.171-1.998-6.78-1.434-1.609-3.431-2.72-5.993-3.333-2.663-.689-5.839-1.034-9.527-1.034-5.326 0-9.475.728-12.446 2.184-2.971 1.455-4.456 4.136-4.456 8.043v6.665h34.42ZM128 645.044c0 6.435-1.793 11.529-5.378 15.283-3.586 3.678-8.605 6.321-15.059 7.929-6.556 1.533-14.086 2.299-22.588 2.299H43.179c-8.81 0-16.442-.843-22.896-2.528-6.454-1.686-11.422-4.559-14.905-8.619C1.793 655.271 0 649.679 0 642.631c0-6.895 1.537-12.296 4.61-16.203 3.073-3.984 7.324-6.818 12.754-8.504 5.43-1.685 11.78-2.528 19.054-2.528h7.99v20.11H34.266c-2.663 0-5.121.153-7.375.46-2.254.23-4.047.842-5.378 1.838-1.435.92-2.152 2.452-2.152 4.597 0 2.222.82 3.83 2.459 4.826 1.537.996 3.483 1.647 5.84 1.954 2.355.23 4.814.345 7.375.345h57.623c2.766 0 5.378-.192 7.837-.575 2.356-.46 4.302-1.226 5.839-2.298 1.434-1.149 2.151-2.758 2.151-4.827 0-2.145-.768-3.792-2.305-4.941-1.537-1.149-3.534-1.953-5.993-2.413-2.458-.46-5.07-.69-7.836-.69H77.753v8.389H61.618v-26.89h64.538v13.56l-10.295 1.149c3.483 1.226 6.402 3.026 8.758 5.401 2.254 2.375 3.381 5.593 3.381 9.653ZM126.156 602.408H1.69v-41.829h18.747v21.259h30.886v-16.203h19.054v16.203h37.186v-21.489h18.593v42.059ZM126.156 551.011H1.69v-14.479l59.928-19.076H1.69v-17.007h124.466v13.904l-64.538 19.076h64.538v17.582ZM128 459.937c0 7.048-1.69 12.64-5.071 16.777-3.483 4.06-8.298 6.933-14.444 8.618-6.249 1.686-13.573 2.529-21.974 2.529H41.642c-8.605 0-15.98-.843-22.127-2.529-6.249-1.685-11.064-4.558-14.444-8.618C1.69 472.577 0 466.985 0 459.937c0-6.895 1.537-12.258 4.61-16.088 2.97-3.907 7.17-6.665 12.6-8.274 5.43-1.609 11.678-2.413 18.747-2.413h10.756v20.11H34.266c-2.458 0-4.814.115-7.068.344-2.254.154-4.098.69-5.532 1.609-1.536.92-2.305 2.49-2.305 4.712 0 2.145.769 3.753 2.305 4.826 1.537.996 3.483 1.647 5.84 1.954 2.253.229 4.66.344 7.221.344h58.545c2.766 0 5.328-.153 7.684-.459 2.253-.383 4.097-1.073 5.531-2.069 1.332-1.072 1.998-2.605 1.998-4.596 0-2.145-.717-3.678-2.151-4.597-1.537-.919-3.483-1.494-5.839-1.724a74.642 74.642 0 0 0-7.223-.344h-13.06v-20.11h10.756c7.068 0 13.419.804 19.054 2.413 5.531 1.532 9.936 4.252 13.215 8.159 3.175 3.83 4.763 9.231 4.763 16.203ZM126.156 410.573H75.294L1.69 428.27v-19.42l39.338-8.849-39.338-7.929v-18.616l73.604 17.352h50.862v19.765ZM126.156 336.222H1.69v-25.626c0-6.282.922-11.721 2.766-16.318 1.844-4.596 5.173-8.158 9.988-10.686 4.713-2.605 11.422-3.908 20.13-3.908 5.122 0 9.68.307 13.676.92 3.995.613 7.478 1.762 10.449 3.447 2.868 1.609 5.275 3.946 7.222 7.01l60.235-12.756v21.259l-55.779 10.228v5.86h55.779v20.57Zm-71.606-20.57v-5.745c0-2.911-.666-5.171-1.998-6.78-1.434-1.609-3.431-2.72-5.993-3.333-2.663-.689-5.839-1.034-9.527-1.034-5.326 0-9.475.728-12.446 2.183-2.971 1.456-4.456 4.137-4.456 8.044v6.665h34.42ZM126.156 267.319H1.69V225.49h18.747v21.259h30.886v-16.203h19.054v16.203h37.186V225.26h18.593v42.059ZM126.156 215.922H1.69v-31.256c0-5.593 1.434-10.189 4.303-13.79 2.766-3.601 6.863-6.282 12.293-8.044 5.327-1.762 11.832-2.643 19.515-2.643 9.63 0 17.005 1.187 22.127 3.562 5.02 2.375 8.503 5.593 10.449 9.653 1.946 4.06 2.92 8.619 2.92 13.675v8.274h52.859v20.569Zm-72.067-20.569v-6.895c0-2.528-.615-4.444-1.844-5.746-1.23-1.302-3.073-2.145-5.532-2.528-2.459-.46-5.583-.69-9.373-.69-3.176 0-5.942.192-8.298.575-2.459.306-4.405 1.111-5.84 2.413-1.433 1.303-2.15 3.333-2.15 6.091v6.78h33.037ZM126.156 160.254 1.69 142.672V119.23l124.466-17.352v18.96l-26.276 3.103v13.675l26.276 3.217v19.421Zm-42.718-24.477v-9.882l-48.557 4.941 48.557 4.941ZM126.156 92.365H1.69v-20.57h124.466v20.57ZM126.156 57.916H1.69V32.291c0-6.282.922-11.721 2.766-16.318C6.3 11.376 9.63 7.814 14.444 5.286c4.713-2.605 11.422-3.907 20.13-3.907 5.122 0 9.68.306 13.676.92 3.995.612 7.478 1.761 10.449 3.447 2.868 1.608 5.275 3.945 7.222 7.01L126.156 0v21.259L70.377 31.486v5.86h55.779v20.57ZM54.55 37.346v-5.745c0-2.911-.666-5.171-1.998-6.78-1.434-1.609-3.431-2.72-5.993-3.332-2.663-.69-5.839-1.034-9.527-1.034-5.326 0-9.475.727-12.446 2.183-2.971 1.455-4.456 4.137-4.456 8.044v6.665h34.42Z" fill="#B1B1B1"/></svg>