<svg xmlns="http://www.w3.org/2000/svg" width="40" height="40" fill="none"><path d="m24.957 25.165-2.548-.008.414-1.785c.126-.54.14-1.09.042-1.632-.323-1.798-1.852-3.18-3.632-3.342a7.41 7.41 0 0 0-5.518-2.44h-2.153a6.024 6.024 0 0 0 5.508-5.994c0-3.318-2.7-6.017-6.018-6.017a6.024 6.024 0 0 0-6.017 6.017 6.024 6.024 0 0 0 5.508 5.994H8.39a7.455 7.455 0 0 0-7.343 6.14L.019 27.82a1.172 1.172 0 0 0 1.153 1.38h4.17v8.49c0 .647.524 1.172 1.172 1.172l15.236.006c2.1 0 4.037-1.226 4.936-3.124l2.12-4.477a4.251 4.251 0 0 0-.247-4.109 4.252 4.252 0 0 0-3.602-1.992ZM7.38 9.965a3.677 3.677 0 0 1 3.674-3.674 3.678 3.678 0 0 1 3.673 3.673 3.677 3.677 0 0 1-3.674 3.673A3.677 3.677 0 0 1 7.38 9.964ZM3.354 22.512a5.113 5.113 0 0 1 5.036-4.211h5.325a5.08 5.08 0 0 1 3.56 1.444l-1.455 2.959-.008.015a5.536 5.536 0 0 1-1.886 2.205l-2.851 1.941-8.502-.011.78-4.342Zm4.331 6.697h2.575v7.307H7.685V29.21Zm19.004 1.053-2.121 4.477a3.132 3.132 0 0 1-2.818 1.783h-9.146V28.66l2.642-1.799a7.882 7.882 0 0 0 2.68-3.13l1.442-2.929a1.783 1.783 0 0 1 1.19 1.352 1.7 1.7 0 0 1-.018.687l-.747 3.218a1.172 1.172 0 0 0 1.138 1.437l4.02.012c.674.001 1.266.33 1.626.899.36.57.4 1.246.112 1.855ZM21.711 8.6l-.468 2.73c-.169.948.852 1.688 1.7 1.236l2.452-1.29 2.45 1.29a1.172 1.172 0 0 0 1.701-1.236l-.468-2.73 1.983-1.933a1.172 1.172 0 0 0-.649-1.999l-2.74-.398-1.226-2.483a1.172 1.172 0 0 0-2.102 0L23.118 4.27l-2.74.398a1.172 1.172 0 0 0-.65 2L21.711 8.6Zm2.354-2.099c.381-.055.711-.295.882-.641l.448-.907.447.907c.17.346.5.586.882.641l1.001.145-.724.706c-.276.27-.402.657-.337 1.038l.17.996-.894-.47c-.341-.18-.75-.18-1.09 0l-.896.47.171-.996c.066-.38-.06-.769-.337-1.038l-.724-.706 1-.145ZM39.943 15.685a1.172 1.172 0 0 0-.946-.797l-3.434-.5-1.535-3.11a1.172 1.172 0 0 0-2.102 0l-1.535 3.11-3.433.5a1.172 1.172 0 0 0-.65 1.999l2.485 2.421-.587 3.42c-.168.948.853 1.688 1.7 1.235l3.071-1.615 3.071 1.615c.85.453 1.869-.288 1.7-1.236l-.586-3.419 2.484-2.421c.32-.312.434-.778.297-1.202Zm-4.858 2.375c-.277.269-.403.657-.337 1.037l.289 1.686-1.515-.796a1.172 1.172 0 0 0-1.09 0l-1.515.796.29-1.686c.065-.38-.061-.768-.337-1.037l-1.226-1.194 1.694-.247c.381-.055.711-.295.882-.64l.757-1.535.757 1.534c.171.346.5.586.883.641l1.693.247-1.225 1.194Z" fill="#BA0800"/></svg>