<svg width="22" height="22" viewBox="0 0 22 22" fill="none" xmlns="http://www.w3.org/2000/svg">
<path d="M10.9108 20.9464C16.4534 20.9464 20.9465 16.4533 20.9465 10.9107C20.9465 5.36814 16.4534 0.875 10.9108 0.875C5.36817 0.875 0.875 5.36814 0.875 10.9107C0.875 16.4533 5.36817 20.9464 10.9108 20.9464Z" stroke="#F6BB00" stroke-width="1.75" stroke-linecap="round" stroke-linejoin="round"/>
<path d="M7.77515 7.02002C8.19164 7.02024 8.52905 7.35836 8.52905 7.7749C8.52883 8.19125 8.1915 8.52859 7.77515 8.52881C7.3586 8.52881 7.02049 8.19139 7.02026 7.7749C7.02026 7.35823 7.35846 7.02002 7.77515 7.02002Z" fill="#F6BB00" stroke="#F6BB00"/>
<path d="M14.0474 7.02002C14.4639 7.02024 14.8013 7.35836 14.8013 7.7749C14.801 8.19125 14.4637 8.52859 14.0474 8.52881C13.6308 8.52881 13.2927 8.19139 13.2925 7.7749C13.2925 7.35823 13.6307 7.02002 14.0474 7.02002Z" fill="#F6BB00" stroke="#F6BB00"/>
<path d="M7.14746 12.1652C7.90349 13.8378 9.15796 14.6741 10.9109 14.6741C13.5402 14.6741 13.9178 13.8374 14.6743 12.1652" stroke="#F6BB00" stroke-width="1.5" stroke-linecap="round" stroke-linejoin="round"/>
</svg>
