<svg width="22" height="22" fill="none" xmlns="http://www.w3.org/2000/svg"><path d="M10.91 20.946c5.543 0 10.037-4.493 10.037-10.035C20.947 5.368 16.453.875 10.91.875 5.368.875.875 5.368.875 10.911c0 5.542 4.493 10.035 10.036 10.035Z" stroke="#F6BB00" stroke-width="1.75" stroke-linecap="round" stroke-linejoin="round"/><path d="M7.775 7.02a.755.755 0 1 1-.001 1.51.755.755 0 0 1 .001-1.51ZM14.047 7.02a.755.755 0 1 1-.001 1.51.755.755 0 0 1 .001-1.51Z" fill="#F6BB00" stroke="#F6BB00"/><path d="M7.147 12.165c.756 1.673 2.011 2.51 3.764 2.51 2.63 0 3.007-.838 3.763-2.51" stroke="#F6BB00" stroke-width="1.5" stroke-linecap="round" stroke-linejoin="round"/></svg>