<svg width="23" height="19" fill="none" xmlns="http://www.w3.org/2000/svg"><path d="M11.5.25a1.573 1.573 0 0 1 1.099.448l9.167 9.032v.001a.797.797 0 0 1-.57 1.365.814.814 0 0 1-.57-.229h-.002l-.111-.111v6.392h1.427c.214 0 .42.083.572.233a.798.798 0 0 1-.572 1.369H1.06a.815.815 0 0 1-.572-.233.797.797 0 0 1 0-1.136.814.814 0 0 1 .572-.233h1.427v-6.392l-.111.11-.002.001a.814.814 0 0 1-1.137-.005.797.797 0 0 1-.004-1.13l.001-.002L10.401.698A1.557 1.557 0 0 1 11.5.25ZM4.105 9.162v7.986h4.348v-5.076c0-.213.086-.418.238-.568a.815.815 0 0 1 .572-.233h4.474c.214 0 .42.083.572.233.152.15.238.355.238.568v5.076h4.348V9.162L11.5 1.876 4.105 9.162Zm5.967 7.986h2.856v-4.275h-2.856v4.275Z" fill="#F6BB00" stroke="#F6BB00" stroke-width=".5"/></svg>