<svg width="1927" height="1208" fill="none" xmlns="http://www.w3.org/2000/svg"><path d="M0 .25A.25.25 0 0 1 .25 0h341.684a.25.25 0 0 1 .25.25v375.93a.25.25 0 0 1-.25.25H.25a.25.25 0 0 1-.25-.25V.25Z" fill="url(#a)"/><rect y="415.768" width="742.3" height="376.43" rx=".25" fill="url(#b)"/><rect x="394.637" y="831.482" width="742.3" height="376.43" rx=".25" fill="url(#c)"/><rect x="1183.78" y="831.482" width="742.3" height="376.43" rx=".25" fill="url(#d)"/><rect x="789.223" y="415.768" width="742.3" height="376.43" rx=".25" fill="url(#e)"/><rect x="394.637" width="742.3" height="376.43" rx=".25" fill="url(#f)"/><rect x="1183.78" width="742.3" height="376.43" rx=".25" fill="url(#g)"/><rect y="831.482" width="342.184" height="376.43" rx=".25" fill="url(#h)"/><defs><linearGradient id="a" x1="171.092" y1="0" x2="171.092" y2="376.43" gradientUnits="userSpaceOnUse"><stop stop-color="#BA0800"/><stop offset="1" stop-color="#A80A03"/></linearGradient><linearGradient id="b" x1="371.15" y1="415.768" x2="371.15" y2="792.198" gradientUnits="userSpaceOnUse"><stop stop-color="#BA0800"/><stop offset="1" stop-color="#A80A03"/></linearGradient><linearGradient id="c" x1="765.786" y1="831.482" x2="765.786" y2="1207.91" gradientUnits="userSpaceOnUse"><stop stop-color="#BA0800"/><stop offset="1" stop-color="#A80A03"/></linearGradient><linearGradient id="d" x1="1554.93" y1="831.482" x2="1554.93" y2="1207.91" gradientUnits="userSpaceOnUse"><stop stop-color="#BA0800"/><stop offset="1" stop-color="#A80A03"/></linearGradient><linearGradient id="e" x1="1160.37" y1="415.768" x2="1160.37" y2="792.198" gradientUnits="userSpaceOnUse"><stop stop-color="#BA0800"/><stop offset="1" stop-color="#A80A03"/></linearGradient><linearGradient id="f" x1="765.786" y1="0" x2="765.786" y2="376.43" gradientUnits="userSpaceOnUse"><stop stop-color="#BA0800"/><stop offset="1" stop-color="#A80A03"/></linearGradient><linearGradient id="g" x1="1554.93" y1="0" x2="1554.93" y2="376.43" gradientUnits="userSpaceOnUse"><stop stop-color="#BA0800"/><stop offset="1" stop-color="#A80A03"/></linearGradient><linearGradient id="h" x1="171.092" y1="831.482" x2="171.092" y2="1207.91" gradientUnits="userSpaceOnUse"><stop stop-color="#BA0800"/><stop offset="1" stop-color="#A80A03"/></linearGradient></defs></svg>