<svg width="1927" height="1208" viewBox="0 0 1927 1208" fill="none" xmlns="http://www.w3.org/2000/svg">
<path d="M0.000244141 0.249993C0.000244141 0.111922 0.112173 0 0.250244 0H341.934C342.072 0 342.184 0.111929 342.184 0.25V376.18C342.184 376.318 342.072 376.43 341.934 376.43H0.250235C0.112164 376.43 0.000244141 376.318 0.000244141 376.18V0.249993Z" fill="url(#paint0_linear_5364_402)"/>
<rect y="415.768" width="742.3" height="376.43" rx="0.25" fill="url(#paint1_linear_5364_402)"/>
<rect x="394.637" y="831.482" width="742.3" height="376.43" rx="0.25" fill="url(#paint2_linear_5364_402)"/>
<rect x="1183.78" y="831.482" width="742.3" height="376.43" rx="0.25" fill="url(#paint3_linear_5364_402)"/>
<rect x="789.223" y="415.768" width="742.3" height="376.43" rx="0.25" fill="url(#paint4_linear_5364_402)"/>
<rect x="394.637" width="742.3" height="376.43" rx="0.25" fill="url(#paint5_linear_5364_402)"/>
<rect x="1183.78" width="742.3" height="376.43" rx="0.25" fill="url(#paint6_linear_5364_402)"/>
<rect y="831.482" width="342.184" height="376.43" rx="0.25" fill="url(#paint7_linear_5364_402)"/>
<defs>
<linearGradient id="paint0_linear_5364_402" x1="171.092" y1="0" x2="171.092" y2="376.43" gradientUnits="userSpaceOnUse">
<stop stop-color="#BA0800"/>
<stop offset="1" stop-color="#A80A03"/>
</linearGradient>
<linearGradient id="paint1_linear_5364_402" x1="371.15" y1="415.768" x2="371.15" y2="792.198" gradientUnits="userSpaceOnUse">
<stop stop-color="#BA0800"/>
<stop offset="1" stop-color="#A80A03"/>
</linearGradient>
<linearGradient id="paint2_linear_5364_402" x1="765.786" y1="831.482" x2="765.786" y2="1207.91" gradientUnits="userSpaceOnUse">
<stop stop-color="#BA0800"/>
<stop offset="1" stop-color="#A80A03"/>
</linearGradient>
<linearGradient id="paint3_linear_5364_402" x1="1554.93" y1="831.482" x2="1554.93" y2="1207.91" gradientUnits="userSpaceOnUse">
<stop stop-color="#BA0800"/>
<stop offset="1" stop-color="#A80A03"/>
</linearGradient>
<linearGradient id="paint4_linear_5364_402" x1="1160.37" y1="415.768" x2="1160.37" y2="792.198" gradientUnits="userSpaceOnUse">
<stop stop-color="#BA0800"/>
<stop offset="1" stop-color="#A80A03"/>
</linearGradient>
<linearGradient id="paint5_linear_5364_402" x1="765.786" y1="0" x2="765.786" y2="376.43" gradientUnits="userSpaceOnUse">
<stop stop-color="#BA0800"/>
<stop offset="1" stop-color="#A80A03"/>
</linearGradient>
<linearGradient id="paint6_linear_5364_402" x1="1554.93" y1="0" x2="1554.93" y2="376.43" gradientUnits="userSpaceOnUse">
<stop stop-color="#BA0800"/>
<stop offset="1" stop-color="#A80A03"/>
</linearGradient>
<linearGradient id="paint7_linear_5364_402" x1="171.092" y1="831.482" x2="171.092" y2="1207.91" gradientUnits="userSpaceOnUse">
<stop stop-color="#BA0800"/>
<stop offset="1" stop-color="#A80A03"/>
</linearGradient>
</defs>
</svg>
