<svg width="105" height="35" fill="none" xmlns="http://www.w3.org/2000/svg"><path d="M62.354 20.305V0h2.867l4.488 10.579V0h3.39v20.305h-2.742L65.87 9.075v11.23h-3.515ZM50.864 20.305V0h8.801v2.858h-4.687v5.39h3.615v2.882h-3.615v6.368h4.737v2.807h-8.85ZM36.283 20.305V0h5.111c.881 0 1.695.075 2.443.226.748.15 1.405.417 1.97.802.582.384 1.022.919 1.321 1.604.316.669.474 1.546.474 2.632 0 .82-.116 1.521-.349 2.106-.233.568-.565 1.02-.997 1.354-.432.334-.964.56-1.596.677.781.117 1.438.384 1.97.802.532.418.93.97 1.197 1.654.266.686.398 1.513.398 2.482 0 1.02-.133 1.905-.398 2.657-.25.752-.624 1.37-1.122 1.855-.5.485-1.114.853-1.845 1.104-.732.233-1.58.35-2.544.35h-6.033Zm4.114-2.907h1.147c1.03 0 1.737-.26 2.119-.778.399-.518.598-1.295.598-2.331 0-.802-.091-1.437-.274-1.905-.183-.485-.482-.836-.898-1.053-.398-.234-.939-.351-1.62-.351h-1.072v6.418Zm0-9.2h1.022c.715 0 1.255-.1 1.62-.301a1.65 1.65 0 0 0 .748-.953c.15-.435.225-.961.225-1.58 0-.618-.108-1.11-.324-1.478-.2-.385-.516-.66-.948-.828-.415-.167-.947-.25-1.595-.25h-.748v5.39ZM21.702 20.305V0h5.11c.882 0 1.696.075 2.444.226.748.15 1.405.417 1.97.802.581.384 1.022.919 1.321 1.604.316.669.474 1.546.474 2.632 0 .82-.117 1.521-.35 2.106-.232.568-.564 1.02-.997 1.354-.432.334-.964.56-1.595.677.781.117 1.438.384 1.97.802.531.418.93.97 1.196 1.654.266.686.4 1.513.4 2.482 0 1.02-.134 1.905-.4 2.657-.25.752-.623 1.37-1.122 1.855-.498.485-1.113.853-1.845 1.104-.731.233-1.579.35-2.543.35h-6.033Zm4.113-2.907h1.147c1.03 0 1.737-.26 2.12-.778.398-.518.598-1.295.598-2.331 0-.802-.091-1.437-.274-1.905-.183-.485-.482-.836-.898-1.053-.399-.234-.939-.351-1.62-.351h-1.073v6.418Zm0-9.2h1.023c.714 0 1.255-.1 1.62-.301a1.65 1.65 0 0 0 .748-.953c.15-.435.225-.961.225-1.58 0-.618-.108-1.11-.325-1.478-.199-.385-.515-.66-.947-.828-.415-.167-.947-.25-1.596-.25h-.748v5.39ZM14.974 20.305V0h4.088v20.305h-4.088ZM3.79 20.305V4.07H0V0h12.335v4.07H7.929v16.235H3.79Z" fill="#2B2B2B"/><path d="M76 .25a.25.25 0 0 1 .25-.25h4.652a.25.25 0 0 1 .25.25v5.83a.25.25 0 0 1-.25.25H76.25a.25.25 0 0 1-.25-.25V.25Z" fill="url(#a)"/><rect x="76" y="6.991" width="11.176" height="6.329" rx=".25" fill="url(#b)"/><rect x="81.941" y="13.981" width="11.176" height="6.329" rx=".25" fill="url(#c)"/><rect x="93.824" y="13.981" width="11.176" height="6.329" rx=".25" fill="url(#d)"/><rect x="87.883" y="6.991" width="11.176" height="6.329" rx=".25" fill="url(#e)"/><rect x="81.941" width="11.176" height="6.329" rx=".25" fill="url(#f)"/><rect x="93.824" width="11.176" height="6.329" rx=".25" fill="url(#g)"/><rect x="76" y="13.981" width="5.152" height="6.329" rx=".25" fill="url(#h)"/><path d="M3 34.823v-9.646h1.993L6.89 30.11a16.72 16.72 0 0 1 .664 1.944h.065c.108-.353.21-.687.308-1.001l.324-.943 1.912-4.933h1.977v9.646h-1.507v-4.845c0-.295.011-.629.033-1.002.021-.373.048-.74.08-1.104.044-.373.087-.707.13-1.002h-.064l-.843 2.401-1.848 4.624H6.987l-1.848-4.624-.826-2.4h-.065c.043.294.08.628.113 1 .033.364.06.732.081 1.105.022.373.033.707.033 1.002v4.845H3ZM18.888 34.823l3.533-9.646h1.864l3.533 9.646H26.1l-1.734-5.258a45.22 45.22 0 0 1-.519-1.59c-.162-.54-.324-1.085-.486-1.635h-.065c-.151.55-.313 1.095-.486 1.635a45.22 45.22 0 0 1-.519 1.59l-1.75 5.258h-1.653Zm1.977-2.769v-1.163h4.943v1.163h-4.943ZM37.587 35a5.723 5.723 0 0 1-2.075-.368 5.606 5.606 0 0 1-1.702-1.06l.892-.958c.378.344.821.614 1.329.81a4.453 4.453 0 0 0 1.588.295c.648 0 1.145-.128 1.491-.383.357-.265.535-.609.535-1.031 0-.295-.076-.53-.227-.707a1.514 1.514 0 0 0-.6-.457c-.259-.127-.55-.255-.875-.382l-1.49-.59a5.926 5.926 0 0 1-1.022-.53 2.893 2.893 0 0 1-.81-.81c-.216-.324-.324-.721-.324-1.193 0-.5.146-.947.437-1.34.303-.402.713-.717 1.232-.942.518-.236 1.118-.354 1.799-.354.637 0 1.232.108 1.783.324.55.216 1.02.5 1.41.854l-.86.957a3.985 3.985 0 0 0-1.101-.618 3.258 3.258 0 0 0-1.232-.236c-.551 0-.994.113-1.33.339-.334.226-.502.535-.502.928 0 .285.082.515.244.692.172.177.394.324.664.442s.546.236.827.353l1.474.575c.422.157.795.348 1.119.574.324.216.578.486.761.81.184.324.276.722.276 1.193 0 .52-.146.997-.438 1.429-.291.422-.718.76-1.28 1.016-.551.245-1.215.368-1.993.368ZM52.676 35c-.908 0-1.707-.201-2.399-.604-.691-.412-1.237-.996-1.636-1.752-.39-.756-.584-1.65-.584-2.68 0-1.042.194-1.93.584-2.666.4-.747.945-1.316 1.636-1.709.692-.393 1.491-.589 2.399-.589.907 0 1.707.196 2.398.59.692.392 1.232.961 1.621 1.707.4.737.6 1.625.6 2.666 0 1.031-.2 1.925-.6 2.68-.389.757-.929 1.34-1.62 1.753-.692.403-1.492.604-2.4.604Zm0-1.296c.594 0 1.107-.152 1.54-.457.442-.304.783-.736 1.02-1.296.25-.57.373-1.232.373-1.988 0-.766-.124-1.419-.372-1.959-.238-.55-.579-.972-1.021-1.266-.433-.305-.946-.457-1.54-.457-.594 0-1.113.152-1.556.457-.443.294-.789.717-1.037 1.266-.238.54-.357 1.193-.357 1.96 0 .755.12 1.418.357 1.987.248.56.594.992 1.037 1.296.443.305.962.457 1.556.457ZM64.83 34.823v-9.646h1.783l3.468 5.64c.194.324.383.668.567 1.031.184.364.362.732.535 1.105h.065c-.043-.51-.087-1.036-.13-1.576-.043-.55-.065-1.08-.065-1.59v-4.61h1.54v9.646h-1.767l-3.468-5.655a16.275 16.275 0 0 1-.6-1.031 50.679 50.679 0 0 1-.534-1.09h-.065c.054.491.102 1.006.146 1.546.054.54.08 1.076.08 1.606v4.624H64.83ZM80.75 34.823v-9.646h3.452c.735 0 1.389.088 1.961.265.573.167 1.027.456 1.362.869.335.412.502.962.502 1.65 0 .667-.167 1.217-.502 1.649-.335.432-.789.756-1.362.972-.572.216-1.226.324-1.96.324H82.37v3.917h-1.62Zm1.621-5.11h1.637c.789 0 1.388-.143 1.799-.427.41-.295.616-.737.616-1.326 0-.589-.206-1.001-.616-1.237-.41-.245-1.01-.368-1.8-.368h-1.636v3.358Zm4.198 5.11-2.675-4.315 1.216-.84 3.274 5.155h-1.815ZM97.187 34.823v-3.667l-3.177-5.98h1.718l1.264 2.593c.162.363.319.716.47 1.06.162.334.335.683.519 1.046h.065c.172-.363.345-.712.518-1.046.173-.344.335-.697.486-1.06l1.265-2.592H102l-3.193 5.98v3.666h-1.62Z" fill="#666"/><defs><linearGradient id="a" x1="78.576" y1="0" x2="78.576" y2="6.329" gradientUnits="userSpaceOnUse"><stop stop-color="#BA0800"/><stop offset="1" stop-color="#A80A03"/></linearGradient><linearGradient id="b" x1="81.588" y1="6.991" x2="81.588" y2="13.32" gradientUnits="userSpaceOnUse"><stop stop-color="#BA0800"/><stop offset="1" stop-color="#A80A03"/></linearGradient><linearGradient id="c" x1="87.529" y1="13.981" x2="87.529" y2="20.31" gradientUnits="userSpaceOnUse"><stop stop-color="#BA0800"/><stop offset="1" stop-color="#A80A03"/></linearGradient><linearGradient id="d" x1="99.412" y1="13.981" x2="99.412" y2="20.31" gradientUnits="userSpaceOnUse"><stop stop-color="#BA0800"/><stop offset="1" stop-color="#A80A03"/></linearGradient><linearGradient id="e" x1="93.471" y1="6.991" x2="93.471" y2="13.32" gradientUnits="userSpaceOnUse"><stop stop-color="#BA0800"/><stop offset="1" stop-color="#A80A03"/></linearGradient><linearGradient id="f" x1="87.529" y1="0" x2="87.529" y2="6.329" gradientUnits="userSpaceOnUse"><stop stop-color="#BA0800"/><stop offset="1" stop-color="#A80A03"/></linearGradient><linearGradient id="g" x1="99.412" y1="0" x2="99.412" y2="6.329" gradientUnits="userSpaceOnUse"><stop stop-color="#BA0800"/><stop offset="1" stop-color="#A80A03"/></linearGradient><linearGradient id="h" x1="78.576" y1="13.981" x2="78.576" y2="20.31" gradientUnits="userSpaceOnUse"><stop stop-color="#BA0800"/><stop offset="1" stop-color="#A80A03"/></linearGradient></defs></svg>