<svg width="199" height="199" fill="none" xmlns="http://www.w3.org/2000/svg"><path d="m52.596 84.87 2.962-.009 3.223.006 3.284-.003c2.297 0 4.594.001 6.89.006 3.53.005 7.059 0 10.588-.007l6.676.004 3.222-.006 2.963.01 2.622.002C97 85 97 85 98 86c.1 2.612.136 5.197.13 7.809l.005 2.478c.004 2.717.001 5.434-.002 8.151l.003 5.638c.001 3.944-.001 7.889-.006 11.833-.005 5.068-.002 10.136.004 15.204.003 3.883.002 7.765 0 11.648-.001 1.869 0 3.738.002 5.607.003 2.608-.001 5.216-.007 7.823l.006 2.365c-.02 5.33-.02 5.33-1.135 6.444-1.53.098-3.063.128-4.596.129l-2.963.01-3.222-.006-3.285.003c-2.296 0-4.593-.001-6.89-.006-3.529-.005-7.058 0-10.587.007l-6.676-.004-3.223.006-2.962-.01-2.622-.002C48 171 48 171 47 170c-.1-2.611-.136-5.197-.13-7.809l-.005-2.478c-.004-2.717-.001-5.434.002-8.15 0-1.88-.002-3.759-.003-5.639-.001-3.944 0-7.889.006-11.833.005-5.068.002-10.136-.004-15.204-.004-3.883-.002-7.765 0-11.648 0-1.869 0-3.738-.002-5.607-.003-2.608 0-5.216.007-7.823l-.007-2.365c.027-6.568.027-6.568 5.732-6.573ZM59 97v62h27V97H59Z" fill="url(#a)"/><path d="m107.596 30.87 2.962-.009 3.223.006 3.284-.003c2.297 0 4.594.002 6.89.006 3.53.005 7.059 0 10.588-.007l6.676.004 3.222-.006 2.963.01 2.622.002C152 31 152 31 153 32c.1 2.611.136 5.197.129 7.809l.006 2.478c.004 2.717.001 5.434-.002 8.15a7779.15 7779.15 0 0 1-.003 17.472c-.005 5.068-.002 10.136.004 15.204.003 3.883.002 7.765 0 11.648-.001 1.869 0 3.738.002 5.607.003 2.608-.001 5.216-.007 7.823l.006 2.365c-.021 5.33-.021 5.33-1.135 6.444a72.608 72.608 0 0 1-4.596.129l-2.963.01-3.222-.006-3.285.003c-2.296 0-4.593-.001-6.89-.006-3.529-.005-7.058 0-10.587.007l-6.676-.004-3.223.006-2.962-.01-2.622-.002C103 117 103 117 102 116a190.04 190.04 0 0 1-.13-7.809l-.005-2.478c-.004-2.717-.001-5.434.002-8.15l-.003-5.639c-.001-3.944.001-7.889.006-11.833a7004.7 7004.7 0 0 0-.004-15.204c-.004-3.883-.003-7.765 0-11.648.001-1.869 0-3.738-.002-5.607-.003-2.608.001-5.216.006-7.823l-.006-2.365c.027-6.568.027-6.568 5.732-6.573ZM114 43v62h27V43h-27Z" fill="url(#b)"/><path d="M102 120h85l.062 24.938.028 7.882.008 6.145.015 3.256v3.076l.007 2.685C187 170 187 170 186 171c-2.581.1-5.135.136-7.717.129l-2.449.006c-2.684.004-5.368.001-8.053-.002l-5.571.003c-3.897.001-7.795-.001-11.692-.006a6838.2 6838.2 0 0 0-15.022.004c-3.836.004-7.673.002-11.509 0-1.847-.001-3.694 0-5.541.002-2.576.003-5.153-.001-7.729-.007l-2.336.007c-5.267-.022-5.267-.022-6.381-1.136a76.036 76.036 0 0 1-.114-4.703l.001-3.076.015-3.256.003-2.976c.006-3.684.02-7.368.032-11.051L102 120Zm12 12v27h61v-27h-61Z" fill="url(#c)"/><path d="m20.38 30.864 2.337.006 2.448-.005c2.685-.004 5.37-.001 8.054.002 1.857 0 3.714-.002 5.57-.003 3.898-.001 7.795 0 11.693.005 5.007.006 10.015.003 15.022-.003 3.836-.004 7.673-.003 11.509 0 1.847 0 3.694 0 5.54-.002 2.577-.003 5.154 0 7.73.006l2.336-.006c5.267.022 5.267.022 6.38 1.136.094 1.565.118 3.135.114 4.703v3.076l-.016 3.256-.002 2.976c-.006 3.683-.02 7.367-.033 11.051L99 82H14l-.063-24.938-.027-7.882-.008-6.145-.015-3.256v-3.076l-.007-2.685c.247-4.153 2.982-3.14 6.5-3.154ZM25 43v28h62V43H25Z" fill="url(#d)"/><defs><linearGradient id="a" x1="72.5" y1="84.861" x2="72.5" y2="171.139" gradientUnits="userSpaceOnUse"><stop stop-color="#555451"/><stop offset="1" stop-color="#8D8B84"/></linearGradient><linearGradient id="b" x1="127.5" y1="30.861" x2="127.5" y2="117.139" gradientUnits="userSpaceOnUse"><stop stop-color="#555451"/><stop offset="1" stop-color="#8D8B84"/></linearGradient><linearGradient id="c" x1="144.503" y1="120" x2="144.503" y2="171.137" gradientUnits="userSpaceOnUse"><stop stop-color="#555451"/><stop offset="1" stop-color="#8D8B84"/></linearGradient><linearGradient id="d" x1="56.497" y1="30.765" x2="56.497" y2="82" gradientUnits="userSpaceOnUse"><stop stop-color="#555451"/><stop offset="1" stop-color="#8D8B84"/></linearGradient></defs></svg>