<svg xmlns="http://www.w3.org/2000/svg" width="16" height="17" fill="none"><path d="M12.96 9.167c-.147 0-.3-.047-.447-.08a6.296 6.296 0 0 1-.873-.26 1.333 1.333 0 0 0-1.653.666l-.147.3A8.12 8.12 0 0 1 8.067 8.46a8.12 8.12 0 0 1-1.334-1.773l.28-.187a1.333 1.333 0 0 0 .667-1.653 6.886 6.886 0 0 1-.26-.874c-.033-.146-.06-.3-.08-.453a2 2 0 0 0-2-1.66h-2a2 2 0 0 0-2 2.273 12.666 12.666 0 0 0 11.013 10.974h.254a2 2 0 0 0 1.827-1.185 2 2 0 0 0 .173-.822v-2a2 2 0 0 0-1.647-1.933Zm.333 4a.668.668 0 0 1-.482.641.7.7 0 0 1-.291.025A11.333 11.333 0 0 1 2.713 3.98a.727.727 0 0 1 .167-.547.667.667 0 0 1 .5-.226h2a.667.667 0 0 1 .667.526 7.415 7.415 0 0 0 .407 1.573l-.934.434a.667.667 0 0 0-.327.887 9.66 9.66 0 0 0 4.667 4.666.667.667 0 0 0 .507 0 .667.667 0 0 0 .38-.346l.413-.934a9.12 9.12 0 0 0 1.053.307c.178.04.358.073.54.1a.666.666 0 0 1 .527.667l.013 2.08Z" fill="#4E4B66"/></svg>