<svg width="199" height="199" fill="none" xmlns="http://www.w3.org/2000/svg"><path d="M144.543 30.742 147 32l2.176.883c7.411 3.194 14.003 8.592 17.269 16.078 1.633 6.003-.676 11.706-3.445 17.039-2.88 3.423-5.179 4.681-9.5 5.75l-2.844.734C148 73 148 73 144 73v2l3.438-.188c4.55.556 6.338 2.72 9.187 6.188A216.63 216.63 0 0 1 167 96c-2.505 4.76-2.505 4.76-5.062 6-2.727 1.407-2.951 3.181-3.938 6l-2 2c-6.092-.193-10.554-2.523-15.812-5.437l-2.311-1.237c-7.465-4.046-7.465-4.046-8.729-7.97l-.773-3.168-.789-3.145c-1.304-6.774-1.304-6.774.805-10.5l1.859-2.356 1.828-2.394C134 72 134 72 138 72l-2.23-.637c-4.546-1.615-7.839-3-10.614-7.062C121.832 56.445 119.511 47.338 122 39c5.446-7.521 13.643-11.985 22.543-8.258Zm-9.293 11.195c-2.648 1.985-2.648 1.985-2.75 5.813.305 4.249 1.265 7.573 3.5 11.25 4.438 2.989 7.075 3.251 12.313 2.313 3.141-.708 4.378-1.004 6.687-3.313.926-2.367.926-2.367 1-5-3.199-5.746-7.873-9.035-14-11l-2.125-.875c-2.062-.258-2.062-.258-4.625.813ZM139 85c-.321 3.7-.321 3.7 1 7 3.792 2.494 7.81 4.275 12 6l1-3c-2.077-3.895-4.82-8.13-9.027-9.809-2.095-.327-2.095-.327-4.973-.191Z" fill="url(#a)"/><path d="m86.774 105.75 2.601 2.25 2.649 2.25L94 112c-1.469 5.752-3.053 11.474-4.875 17.125l-.867 2.758C87 134 87 134 84.856 134.801c-3.562.248-7.101.306-10.668.262l-2.1-.014c-1.696-.012-3.392-.03-5.088-.049l1.094 3.359 1.406 4.391.723 2.211.683 2.148.635 1.968c.46 1.923.46 1.923.46 5.923l-3.15 1.391-2.031.897a508.649 508.649 0 0 1-4.425 1.914c-3.152 1.348-6.198 2.688-9.192 4.365-4.153 2.222-6.217 2.68-10.886 1.511-3.685-1.354-7.072-2.835-10.317-5.078-1.554-4.042-.585-6.924.453-11.043C33.666 142.401 33.71 135.65 34 129c2.414-.699 4.83-1.385 7.25-2.062l2.067-.604c6.009-1.663 8.778-.85 14.246 1.666 2.479 1.137 4.844 2.136 7.437 3l-.691-1.758c-2.57-6.983-2.459-11.106.629-17.929 2.15-3.714 3.91-5.082 8-6.375 5.02-1.218 9.317-2.039 13.836.812ZM75 117l-1 7h5l2-9c-2.084 0-4.098 1.22-6 2Zm-30 21c-.4 2.522-.75 5.03-1.062 7.563l-.276 2.154c-.224 1.76-.444 3.522-.662 5.283 3.275 1.048 4.671 1.138 7.895-.215l2.918-1.722 2.957-1.715L59 148c-1.637-5.68-1.637-5.68-5.375-10-2.748-1.047-6.27-2.355-8.625 0Z" fill="url(#b)"/><path d="m119.375 62.5 1.942 1.012c1.567.818 3.126 1.651 4.683 2.488-.218 3.683-.581 7.335-1 11l-.383 3.566c-1.038 6.778-2.153 10.802-7.617 15.184a116.097 116.097 0 0 1-5 3.25l-3 2c-2.943.447-5.901.37-8.875.375l-2.433.074c-3.864.019-6.101-.09-9.457-2.133-2.447-2.536-4.833-5.063-7.11-7.754l-2.43-2.808C77 86 77 86 77.09 83.594L78 81l1.059-3.41c3.622-9.594 3.622-9.594 7.14-12.25C88.78 64.314 91.301 63.643 94 63a780.02 780.02 0 0 0 6.25-2.25c7.51-2.639 12.165-2.013 19.125 1.75ZM93 75c-2.178 2.847-3.254 5.508-4 9 1.592 2.73 2.487 4.194 5 6 5.653 1.162 10.404.743 15.625-1.688C113.7 84.214 113.538 77.446 114 72c-7.848-2.864-13.728-1.13-21 3Z" fill="url(#c)"/><path d="M130.988 100.008c5.212 2.57 8.55 8.947 11.012 13.992.275 4.073-.628 7.196-2 11l-.742 3.59c-1.593 4.319-2.947 5.156-7.07 7.098-9.547 4.029-19.789 1.957-29.188-1.688-3.526-1.861-5.266-3.19-7.422-6.519C94.196 119.16 98.731 110.515 102 103c4.259-.053 8.19-.077 12.375.75 4.784.63 8.102-.851 12.363-2.937 2.262-.813 2.262-.813 4.25-.805Zm-7.785 13.984c-2.918 1.335-5.26 1.203-8.453 1.133l-3.266-.055L109 115l-2 7c3.427 3.427 8.313 3.484 13 4 3.245-.092 6.064-.532 9-2 .544-2.053.544-2.053.75-4.437l.297-2.434c.194-2.349.194-2.349-2.047-4.129-2.904-.242-2.904-.242-4.797.992Z" fill="url(#d)"/><path d="M67 70c4.247 3.753 5.823 5.925 6.309 11.625.323 7.757.523 15.475-3.735 22.258-6.606 5.433-16.585 5.704-24.832 6.386-3.373-.331-5.287-1.433-8.117-3.269l-2.648-1.688L32 104c.204-2.142.42-4.284.691-6.418.341-2.55.341-2.55.399-5.008.252-2.631.55-4.292 1.91-6.574 2.958-1.611 5.926-2.664 9.11-3.758 3.01-1.294 3.863-1.978 5.453-4.742C52.669 72.133 60.91 67.423 67 70Zm-7 12-2 4h-2l-.715 1.879c-1.98 3.267-4.8 3.698-8.289 4.898-2.275 1.088-2.275 1.088-2.773 3.852L44 99c2.105-.31 4.209-.623 6.313-.938l3.55-.527C57.016 97.08 57.016 97.08 60 96c2.089-3.07 2.221-5.6 2.125-9.25l-.055-2.703L62 82h-2Z" fill="url(#e)"/><path d="M104.188 136.875c4.764 1.16 9.56 1.92 14.406 2.66C121 140 121 140 122 141c1.059 6.352 1.106 12.571 1 19l-8 3-1.71.799c-5.713 2.504-10.306 2.306-16.415 1.514l-2.629-.28c-4.648-.534-8.852-1.34-13.246-3.033-.505-2.416-1.004-4.832-1.5-7.25l-.434-2.066C78.388 149.354 78 146.417 78 143c2.347-1.184 4.7-2.347 7.063-3.5l1.99-1.012c5.795-2.797 10.838-3.247 17.135-1.613ZM90 149l1 4c3.735.86 7.232 1.163 11.062 1.188l3.098.042c2.82-.228 4.446-.777 6.84-2.23v-2c-2.103-.504-4.208-1.003-6.312-1.5l-3.551-.844c-4.747-.993-7.625-.26-12.137 1.344Z" fill="url(#f)"/><path d="M36 31c2.898.256 5.792.529 8.687.813l2.475.212c6.94.703 10.956 2.553 15.525 7.975l1.762 2.063c3.332 4.162 3.78 6.338 3.676 11.624l-.055 3.575L68 60h-2l-1 3c-3.444 3-3.444 3-6 3l-1 3c-4.73 1.862-9.962 2.258-15 2-2.847-5.56-5.462-11.15-7.813-16.938l-.982-2.263C31.985 46.288 31.467 41.794 33 36c1.562-3.063 1.562-3.063 3-5Zm8 12c.657 3.782 1.72 7.218 3.062 10.813l1.098 2.956L49 59c3.612-.591 3.612-.591 6.812-2.25 1.327-1.736 1.327-1.736 1.75-4.063C56.708 48.605 54.407 46.322 51 44c-3.722-.963-3.722-.963-7-1Z" fill="url(#g)"/><path d="M144 127c4.99.621 9.207 2.095 13.812 4l2.061.828c4.981 2.026 4.981 2.026 6.127 3.172a89.81 89.81 0 0 1 1 8l.308 3.211c.485 8.637.485 8.637-1.8 11.957C161.12 162 161.12 162 158 162l-1 3c-2.357 1.178-3.526 1.044-6.133.879l-2.441-.147-2.551-.17-2.574-.158c-2.101-.13-4.201-.266-6.301-.404-.635-1.249-1.267-2.499-1.899-3.75l-1.067-2.109c-3.155-6.534-3.155-6.534-3.034-10.141 1.149-2.114 2.55-3.755 4.129-5.57 2.394-3.109 4.038-6.41 5.746-9.93l.939-1.928A765.804 765.804 0 0 0 144 127Zm6 13-2 6h-2a100.45 100.45 0 0 0-3 6l1 2c4.053 1.091 6.149 1.435 9.937-.5 2.369-2.428 2.369-2.428 2.563-6.062-.223-3.341-.223-3.341-1.813-5.313-1.805-1.31-1.805-1.31-4.687-2.125Z" fill="url(#h)"/><path d="M111.227 34.98C113 37 113 37 113.25 40.876A63.064 63.064 0 0 1 112 45l-.594 2.367c-1.01 3.668-1.974 6.15-4.531 9.008C103.063 58.53 99.259 59.985 95 61l-3.828.918c-3.46.398-5.156-.174-7.98-2.191a130.307 130.307 0 0 1-3.63-3.102l-1.888-1.578c-5.947-4.996-5.947-4.996-6.424-8.984.093-4.81 1.948-7.1 5.25-10.5 10.16-8.498 24.433-8.978 34.727-.583ZM84 44c1.37 3.161 1.99 3.993 5 6 5.892-.384 5.892-.384 11-3 .388-1.99.726-3.991 1-6a393.56 393.56 0 0 0-6.25-.188l-3.516-.105c-3.457.313-4.75.95-7.234 3.293Z" fill="url(#i)"/><defs><linearGradient id="a" x1="143.978" y1="29.402" x2="143.978" y2="110" gradientUnits="userSpaceOnUse"><stop stop-color="#555451"/><stop offset="1" stop-color="#8D8B84"/></linearGradient><linearGradient id="b" x1="62.593" y1="103.818" x2="62.593" y2="165.702" gradientUnits="userSpaceOnUse"><stop stop-color="#555451"/><stop offset="1" stop-color="#8D8B84"/></linearGradient><linearGradient id="c" x1="101.53" y1="59.142" x2="101.53" y2="101.451" gradientUnits="userSpaceOnUse"><stop stop-color="#555451"/><stop offset="1" stop-color="#8D8B84"/></linearGradient><linearGradient id="d" x1="118.686" y1="100.007" x2="118.686" y2="137.887" gradientUnits="userSpaceOnUse"><stop stop-color="#555451"/><stop offset="1" stop-color="#8D8B84"/></linearGradient><linearGradient id="e" x1="52.73" y1="69.275" x2="52.73" y2="110.269" gradientUnits="userSpaceOnUse"><stop stop-color="#555451"/><stop offset="1" stop-color="#8D8B84"/></linearGradient><linearGradient id="f" x1="100.519" y1="135.929" x2="100.519" y2="165.843" gradientUnits="userSpaceOnUse"><stop stop-color="#555451"/><stop offset="1" stop-color="#8D8B84"/></linearGradient><linearGradient id="g" x1="50.13" y1="31" x2="50.13" y2="71.071" gradientUnits="userSpaceOnUse"><stop stop-color="#555451"/><stop offset="1" stop-color="#8D8B84"/></linearGradient><linearGradient id="h" x1="149.264" y1="127" x2="149.264" y2="165.986" gradientUnits="userSpaceOnUse"><stop stop-color="#555451"/><stop offset="1" stop-color="#8D8B84"/></linearGradient><linearGradient id="i" x1="92.25" y1="28.93" x2="92.25" y2="62.037" gradientUnits="userSpaceOnUse"><stop stop-color="#555451"/><stop offset="1" stop-color="#8D8B84"/></linearGradient></defs></svg>